<svg xmlns="http://www.w3.org/2000/svg" xmlns:xlink="http://www.w3.org/1999/xlink" contentStyleType="text/css" height="1006.6px" preserveAspectRatio="none" style="width:1099px;height:1006px;background:#FFFFFF;" version="1.1" viewBox="0 0 1099 1006" width="1099.7px" zoomAndPan="magnify"><defs/><g><!--cluster com--><g id="cluster_com"><path d="M5.95,4.2096 L26.8003,4.2096 A2.625,2.625 0 0 1 28.5503,5.9596 L33.4503,21.4443 L979.65,21.4443 A1.75,1.75 0 0 1 981.4,23.1943 L981.4,999.9596 A1.75,1.75 0 0 1 979.65,1001.7096 L5.95,1001.7096 A1.75,1.75 0 0 1 4.2,999.9596 L4.2,5.9596 A1.75,1.75 0 0 1 5.95,4.2096 " fill="none" style="stroke:#000000;stroke-width:1.0499999999999998;"/><line style="stroke:#000000;stroke-width:1.0499999999999998;" x1="4.2" x2="33.4503" y1="21.4443" y2="21.4443"/><text fill="#000000" font-family="sans-serif" font-size="9.8" font-weight="bold" lengthAdjust="spacing" textLength="20.1503" x="7" y="16.1848">com</text></g><!--cluster example--><g id="cluster_example"><path d="M22.75,35.7096 L62.6739,35.7096 A2.625,2.625 0 0 1 64.4239,37.4596 L69.3239,52.9443 L962.85,52.9443 A1.75,1.75 0 0 1 964.6,54.6943 L964.6,983.1596 A1.75,1.75 0 0 1 962.85,984.9096 L22.75,984.9096 A1.75,1.75 0 0 1 21,983.1596 L21,37.4596 A1.75,1.75 0 0 1 22.75,35.7096 " fill="none" style="stroke:#000000;stroke-width:1.0499999999999998;"/><line style="stroke:#000000;stroke-width:1.0499999999999998;" x1="21" x2="69.3239" y1="52.9443" y2="52.9443"/><text fill="#000000" font-family="sans-serif" font-size="9.8" font-weight="bold" lengthAdjust="spacing" textLength="39.2239" x="23.8" y="47.6848">example</text></g><!--cluster aufgabe3--><g id="cluster_aufgabe3"><path d="M39.55,67.2096 L83.2733,67.2096 A2.625,2.625 0 0 1 85.0233,68.9596 L89.9233,84.4443 L946.05,84.4443 A1.75,1.75 0 0 1 947.8,86.1943 L947.8,966.3596 A1.75,1.75 0 0 1 946.05,968.1096 L39.55,968.1096 A1.75,1.75 0 0 1 37.8,966.3596 L37.8,68.9596 A1.75,1.75 0 0 1 39.55,67.2096 " fill="none" style="stroke:#000000;stroke-width:1.0499999999999998;"/><line style="stroke:#000000;stroke-width:1.0499999999999998;" x1="37.8" x2="89.9233" y1="84.4443" y2="84.4443"/><text fill="#000000" font-family="sans-serif" font-size="9.8" font-weight="bold" lengthAdjust="spacing" textLength="43.0233" x="40.6" y="79.1848">aufgabe3</text></g><!--cluster model--><g id="cluster_model"><path d="M437.15,662.9096 L466.7093,662.9096 A2.625,2.625 0 0 1 468.4593,664.6596 L473.3593,680.1443 L583.45,680.1443 A1.75,1.75 0 0 1 585.2,681.8943 L585.2,796.9596 A1.75,1.75 0 0 1 583.45,798.7096 L437.15,798.7096 A1.75,1.75 0 0 1 435.4,796.9596 L435.4,664.6596 A1.75,1.75 0 0 1 437.15,662.9096 " fill="none" style="stroke:#000000;stroke-width:1.0499999999999998;"/><line style="stroke:#000000;stroke-width:1.0499999999999998;" x1="435.4" x2="473.3593" y1="680.1443" y2="680.1443"/><text fill="#000000" font-family="sans-serif" font-size="9.8" font-weight="bold" lengthAdjust="spacing" textLength="28.8593" x="438.2" y="674.8848">model</text></g><!--cluster navigation--><g id="cluster_navigation"><path d="M528.15,168.7096 L577.8548,168.7096 A2.625,2.625 0 0 1 579.6048,170.4596 L584.5048,185.9443 L817.95,185.9443 A1.75,1.75 0 0 1 819.7,187.6943 L819.7,289.4596 A1.75,1.75 0 0 1 817.95,291.2096 L528.15,291.2096 A1.75,1.75 0 0 1 526.4,289.4596 L526.4,170.4596 A1.75,1.75 0 0 1 528.15,168.7096 " fill="none" style="stroke:#000000;stroke-width:1.0499999999999998;"/><line style="stroke:#000000;stroke-width:1.0499999999999998;" x1="526.4" x2="584.5048" y1="185.9443" y2="185.9443"/><text fill="#000000" font-family="sans-serif" font-size="9.8" font-weight="bold" lengthAdjust="spacing" textLength="49.0048" x="529.2" y="180.6848">navigation</text></g><!--cluster ui--><g id="cluster_ui"><path d="M56.35,308.0096 L65.759,308.0096 A2.625,2.625 0 0 1 67.509,309.7596 L72.409,325.2443 L887.25,325.2443 A1.75,1.75 0 0 1 889,326.9943 L889,644.3596 A1.75,1.75 0 0 1 887.25,646.1096 L56.35,646.1096 A1.75,1.75 0 0 1 54.6,644.3596 L54.6,309.7596 A1.75,1.75 0 0 1 56.35,308.0096 " fill="none" style="stroke:#000000;stroke-width:1.0499999999999998;"/><line style="stroke:#000000;stroke-width:1.0499999999999998;" x1="54.6" x2="72.409" y1="325.2443" y2="325.2443"/><text fill="#000000" font-family="sans-serif" font-size="9.8" font-weight="bold" lengthAdjust="spacing" textLength="8.709" x="57.4" y="319.9848">ui</text></g><!--cluster add--><g id="cluster_add"><path d="M420.35,339.5096 L438.4728,339.5096 A2.625,2.625 0 0 1 440.2228,341.2596 L445.1228,356.7443 L870.45,356.7443 A1.75,1.75 0 0 1 872.2,358.4943 L872.2,620.9096 A1.75,1.75 0 0 1 870.45,622.6596 L420.35,622.6596 A1.75,1.75 0 0 1 418.6,620.9096 L418.6,341.2596 A1.75,1.75 0 0 1 420.35,339.5096 " fill="none" style="stroke:#000000;stroke-width:1.0499999999999998;"/><line style="stroke:#000000;stroke-width:1.0499999999999998;" x1="418.6" x2="445.1228" y1="356.7443" y2="356.7443"/><text fill="#000000" font-family="sans-serif" font-size="9.8" font-weight="bold" lengthAdjust="spacing" textLength="17.4228" x="421.4" y="351.4848">add</text></g><!--cluster home--><g id="cluster_home"><path d="M73.15,359.1096 L99.9865,359.1096 A2.625,2.625 0 0 1 101.7365,360.8596 L106.6365,376.3443 L400.05,376.3443 A1.75,1.75 0 0 1 401.8,378.0943 L401.8,627.5596 A1.75,1.75 0 0 1 400.05,629.3096 L73.15,629.3096 A1.75,1.75 0 0 1 71.4,627.5596 L71.4,360.8596 A1.75,1.75 0 0 1 73.15,359.1096 " fill="none" style="stroke:#000000;stroke-width:1.0499999999999998;"/><line style="stroke:#000000;stroke-width:1.0499999999999998;" x1="71.4" x2="106.6365" y1="376.3443" y2="376.3443"/><text fill="#000000" font-family="sans-serif" font-size="9.8" font-weight="bold" lengthAdjust="spacing" textLength="26.1365" x="74.2" y="371.0848">home</text></g><!--cluster viewmodel--><g id="cluster_viewmodel"><path d="M638.75,815.5096 L689.5554,815.5096 A2.625,2.625 0 0 1 691.3054,817.2596 L696.2054,832.7443 L929.25,832.7443 A1.75,1.75 0 0 1 931,834.4943 L931,949.5596 A1.75,1.75 0 0 1 929.25,951.3096 L638.75,951.3096 A1.75,1.75 0 0 1 637,949.5596 L637,817.2596 A1.75,1.75 0 0 1 638.75,815.5096 " fill="none" style="stroke:#000000;stroke-width:1.0499999999999998;"/><line style="stroke:#000000;stroke-width:1.0499999999999998;" x1="637" x2="696.2054" y1="832.7443" y2="832.7443"/><text fill="#000000" font-family="sans-serif" font-size="9.8" font-weight="bold" lengthAdjust="spacing" textLength="50.1054" x="639.8" y="827.4848">viewmodel</text></g><!--class MainActivity--><g id="elem_MainActivity"><rect codeLine="61" fill="#F1F1F1" height="59.6695" id="MainActivity" rx="1.75" ry="1.75" style="stroke:#181818;stroke-width:0.3499999999999999;" width="101.0071" x="520.8" y="93.1096"/><ellipse cx="543.1482" cy="104.3096" fill="#ADD1B2" rx="7.7" ry="7.7" style="stroke:#181818;stroke-width:0.6999999999999998;"/><path d="M545.0841,101.4221 Q545.1935,101.2689 545.3247,101.1924 Q545.456,101.1158 545.6091,101.1158 Q545.8716,101.1158 546.0357,101.3018 Q546.1997,101.4768 546.1997,101.9033 L546.1997,102.9205 Q546.1997,103.3471 546.0357,103.533 Q545.8716,103.7189 545.6091,103.7189 Q545.3685,103.7189 545.2263,103.5768 Q545.0841,103.4455 545.0076,103.0846 Q544.9747,102.833 544.8435,102.7018 Q544.6138,102.4393 544.1872,102.2861 Q543.7607,102.133 543.3232,102.133 Q542.7872,102.133 542.3388,102.3627 Q541.9013,102.5924 541.5513,103.1174 Q541.2122,103.6424 541.2122,104.3643 L541.2122,105.1299 Q541.2122,105.9939 541.8357,106.5736 Q542.4591,107.1424 543.5747,107.1424 Q544.231,107.1424 544.6904,106.9674 Q544.9638,106.858 545.2591,106.5518 Q545.4451,106.3658 545.5435,106.3111 Q545.6529,106.2564 545.7951,106.2564 Q546.0247,106.2564 546.1997,106.4424 Q546.3857,106.6174 546.3857,106.858 Q546.3857,107.0986 546.1451,107.383 Q545.7951,107.7877 545.2372,108.0174 Q544.4826,108.3346 543.5747,108.3346 Q542.5138,108.3346 541.6716,107.8971 Q540.9826,107.5471 540.5013,106.8033 Q540.0201,106.0486 540.0201,105.1518 L540.0201,104.3424 Q540.0201,103.4127 540.4466,102.6143 Q540.8841,101.8049 541.6497,101.3783 Q542.4154,100.9408 543.2794,100.9408 Q543.7935,100.9408 544.2419,101.0611 Q544.7013,101.1705 545.0841,101.4221 Z " fill="#000000"/><text fill="#000000" font-family="sans-serif" font-size="9.8" lengthAdjust="spacing" textLength="52.2778" x="555.5811" y="108.3674">MainActivity</text><line style="stroke:#181818;stroke-width:0.3499999999999999;" x1="521.5" x2="621.1071" y1="115.5096" y2="115.5096"/><line style="stroke:#181818;stroke-width:0.3499999999999999;" x1="521.5" x2="621.1071" y1="121.1096" y2="121.1096"/><ellipse cx="528.5" cy="131.477" fill="#84BE84" rx="2.1" ry="2.1" style="stroke:#038048;stroke-width:0.6999999999999998;"/><text fill="#000000" font-family="sans-serif" font-size="9.8" lengthAdjust="spacing" textLength="82.8071" x="534.8" y="134.4848">onCreate(Bundle?)</text><ellipse cx="528.5" cy="144.5117" fill="#84BE84" rx="2.1" ry="2.1" style="stroke:#038048;stroke-width:0.6999999999999998;"/><text fill="#000000" font-family="sans-serif" font-size="9.8" lengthAdjust="spacing" textLength="53.9239" x="534.8" y="147.5195">setContent()</text></g><!--class BookingEntry--><g id="elem_BookingEntry"><rect codeLine="3" fill="#F1F1F1" height="98.7738" id="BookingEntry" rx="1.75" ry="1.75" style="stroke:#181818;stroke-width:0.3499999999999999;" width="127.7035" x="446.6" y="688.8096"/><ellipse cx="478.3328" cy="700.0096" fill="#ADD1B2" rx="7.7" ry="7.7" style="stroke:#181818;stroke-width:0.6999999999999998;"/><path d="M480.2687,697.1221 Q480.3781,696.9689 480.5093,696.8924 Q480.6406,696.8158 480.7937,696.8158 Q481.0562,696.8158 481.2203,697.0018 Q481.3843,697.1768 481.3843,697.6033 L481.3843,698.6205 Q481.3843,699.0471 481.2203,699.233 Q481.0562,699.4189 480.7937,699.4189 Q480.5531,699.4189 480.4109,699.2768 Q480.2687,699.1455 480.1921,698.7846 Q480.1593,698.533 480.0281,698.4018 Q479.7984,698.1393 479.3718,697.9861 Q478.9453,697.833 478.5078,697.833 Q477.9718,697.833 477.5234,698.0627 Q477.0859,698.2924 476.7359,698.8174 Q476.3968,699.3424 476.3968,700.0643 L476.3968,700.8299 Q476.3968,701.6939 477.0203,702.2736 Q477.6437,702.8424 478.7593,702.8424 Q479.4156,702.8424 479.875,702.6674 Q480.1484,702.558 480.4437,702.2518 Q480.6296,702.0658 480.7281,702.0111 Q480.8375,701.9564 480.9796,701.9564 Q481.2093,701.9564 481.3843,702.1424 Q481.5703,702.3174 481.5703,702.558 Q481.5703,702.7986 481.3296,703.083 Q480.9796,703.4877 480.4218,703.7174 Q479.6671,704.0346 478.7593,704.0346 Q477.6984,704.0346 476.8562,703.5971 Q476.1671,703.2471 475.6859,702.5033 Q475.2046,701.7486 475.2046,700.8518 L475.2046,700.0424 Q475.2046,699.1127 475.6312,698.3143 Q476.0687,697.5049 476.8343,697.0783 Q477.6,696.6408 478.464,696.6408 Q478.9781,696.6408 479.4265,696.7611 Q479.8859,696.8705 480.2687,697.1221 Z " fill="#000000"/><text fill="#000000" font-family="sans-serif" font-size="9.8" lengthAdjust="spacing" textLength="58.288" x="492.6828" y="704.0674">BookingEntry</text><line style="stroke:#181818;stroke-width:0.3499999999999999;" x1="447.3" x2="573.6035" y1="711.2096" y2="711.2096"/><ellipse cx="454.3" cy="721.577" fill="none" rx="2.1" ry="2.1" style="stroke:#038048;stroke-width:0.6999999999999998;"/><text fill="#000000" font-family="sans-serif" font-size="9.8" lengthAdjust="spacing" textLength="21.2461" x="460.6" y="724.5848">Int id</text><ellipse cx="454.3" cy="734.6117" fill="none" rx="2.1" ry="2.1" style="stroke:#038048;stroke-width:0.6999999999999998;"/><text fill="#000000" font-family="sans-serif" font-size="9.8" lengthAdjust="spacing" textLength="52.8377" x="460.6" y="737.6195">String name</text><ellipse cx="454.3" cy="747.6465" fill="none" rx="2.1" ry="2.1" style="stroke:#038048;stroke-width:0.6999999999999998;"/><text fill="#000000" font-family="sans-serif" font-size="9.8" lengthAdjust="spacing" textLength="94.2341" x="460.6" y="750.6543">LocalDate arrivalDate</text><ellipse cx="454.3" cy="760.6812" fill="none" rx="2.1" ry="2.1" style="stroke:#038048;stroke-width:0.6999999999999998;"/><text fill="#000000" font-family="sans-serif" font-size="9.8" lengthAdjust="spacing" textLength="109.5035" x="460.6" y="763.6891">LocalDate departureDate</text><ellipse cx="454.3" cy="773.716" fill="none" rx="2.1" ry="2.1" style="stroke:#038048;stroke-width:0.6999999999999998;"/><text fill="#000000" font-family="sans-serif" font-size="9.8" lengthAdjust="spacing" textLength="47.3826" x="460.6" y="776.7238">Color color</text><line style="stroke:#181818;stroke-width:0.3499999999999999;" x1="447.3" x2="573.6035" y1="781.9834" y2="781.9834"/></g><!--class NavGraph--><g id="elem_NavGraph"><rect codeLine="12" fill="#F1F1F1" height="33.6" id="NavGraph" rx="1.75" ry="1.75" style="stroke:#181818;stroke-width:0.3499999999999999;" width="67.0646" x="537.6" y="220.5096"/><ellipse cx="548.1" cy="231.7096" fill="#ADD1B2" rx="7.7" ry="7.7" style="stroke:#181818;stroke-width:0.6999999999999998;"/><path d="M550.0359,228.8221 Q550.1453,228.6689 550.2766,228.5924 Q550.4078,228.5158 550.5609,228.5158 Q550.8234,228.5158 550.9875,228.7018 Q551.1516,228.8768 551.1516,229.3033 L551.1516,230.3205 Q551.1516,230.7471 550.9875,230.933 Q550.8234,231.1189 550.5609,231.1189 Q550.3203,231.1189 550.1781,230.9768 Q550.0359,230.8455 549.9594,230.4846 Q549.9266,230.233 549.7953,230.1018 Q549.5656,229.8393 549.1391,229.6861 Q548.7125,229.533 548.275,229.533 Q547.7391,229.533 547.2906,229.7627 Q546.8531,229.9924 546.5031,230.5174 Q546.1641,231.0424 546.1641,231.7643 L546.1641,232.5299 Q546.1641,233.3939 546.7875,233.9736 Q547.4109,234.5424 548.5266,234.5424 Q549.1828,234.5424 549.6422,234.3674 Q549.9156,234.258 550.2109,233.9518 Q550.3969,233.7658 550.4953,233.7111 Q550.6047,233.6564 550.7469,233.6564 Q550.9766,233.6564 551.1516,233.8424 Q551.3375,234.0174 551.3375,234.258 Q551.3375,234.4986 551.0969,234.783 Q550.7469,235.1877 550.1891,235.4174 Q549.4344,235.7346 548.5266,235.7346 Q547.4656,235.7346 546.6234,235.2971 Q545.9344,234.9471 545.4531,234.2033 Q544.9719,233.4486 544.9719,232.5518 L544.9719,231.7424 Q544.9719,230.8127 545.3984,230.0143 Q545.8359,229.2049 546.6016,228.7783 Q547.3672,228.3408 548.2312,228.3408 Q548.7453,228.3408 549.1937,228.4611 Q549.6531,228.5705 550.0359,228.8221 Z " fill="#000000"/><text fill="#000000" font-family="sans-serif" font-size="9.8" lengthAdjust="spacing" textLength="44.6646" x="557.9" y="235.7674">NavGraph</text><line style="stroke:#181818;stroke-width:0.3499999999999999;" x1="538.3" x2="603.9646" y1="242.9096" y2="242.9096"/><line style="stroke:#181818;stroke-width:0.3499999999999999;" x1="538.3" x2="603.9646" y1="248.5096" y2="248.5096"/></g><!--class AppNavHost--><g id="elem_AppNavHost"><rect codeLine="13" fill="#F1F1F1" height="85.7391" id="AppNavHost" rx="1.75" ry="1.75" style="stroke:#181818;stroke-width:0.3499999999999999;" width="178.3544" x="629.65" y="194.6096"/><ellipse cx="688.3447" cy="205.8096" fill="#ADD1B2" rx="7.7" ry="7.7" style="stroke:#181818;stroke-width:0.6999999999999998;"/><path d="M690.2807,202.9221 Q690.39,202.7689 690.5213,202.6924 Q690.6525,202.6158 690.8057,202.6158 Q691.0682,202.6158 691.2322,202.8018 Q691.3963,202.9768 691.3963,203.4033 L691.3963,204.4205 Q691.3963,204.8471 691.2322,205.033 Q691.0682,205.2189 690.8057,205.2189 Q690.565,205.2189 690.4229,205.0768 Q690.2807,204.9455 690.2041,204.5846 Q690.1713,204.333 690.04,204.2018 Q689.8104,203.9393 689.3838,203.7861 Q688.9572,203.633 688.5197,203.633 Q687.9838,203.633 687.5354,203.8627 Q687.0979,204.0924 686.7479,204.6174 Q686.4088,205.1424 686.4088,205.8643 L686.4088,206.6299 Q686.4088,207.4939 687.0322,208.0736 Q687.6557,208.6424 688.7713,208.6424 Q689.4275,208.6424 689.8869,208.4674 Q690.1604,208.358 690.4557,208.0518 Q690.6416,207.8658 690.74,207.8111 Q690.8494,207.7564 690.9916,207.7564 Q691.2213,207.7564 691.3963,207.9424 Q691.5822,208.1174 691.5822,208.358 Q691.5822,208.5986 691.3416,208.883 Q690.9916,209.2877 690.4338,209.5174 Q689.6791,209.8346 688.7713,209.8346 Q687.7104,209.8346 686.8682,209.3971 Q686.1791,209.0471 685.6979,208.3033 Q685.2166,207.5486 685.2166,206.6518 L685.2166,205.8424 Q685.2166,204.9127 685.6432,204.1143 Q686.0807,203.3049 686.8463,202.8783 Q687.6119,202.4408 688.476,202.4408 Q688.99,202.4408 689.4385,202.5611 Q689.8979,202.6705 690.2807,202.9221 Z " fill="#000000"/><text fill="#000000" font-family="sans-serif" font-size="9.8" lengthAdjust="spacing" textLength="55.0149" x="702.6947" y="209.8674">AppNavHost</text><line style="stroke:#181818;stroke-width:0.3499999999999999;" x1="630.35" x2="807.3044" y1="217.0096" y2="217.0096"/><ellipse cx="637.35" cy="227.377" fill="none" rx="2.1" ry="2.1" style="stroke:#038048;stroke-width:0.6999999999999998;"/><text fill="#000000" font-family="sans-serif" font-size="9.8" lengthAdjust="spacing" textLength="141.0664" x="643.65" y="230.3848">NavHostController navController</text><ellipse cx="637.35" cy="240.4117" fill="none" rx="2.1" ry="2.1" style="stroke:#038048;stroke-width:0.6999999999999998;"/><text fill="#000000" font-family="sans-serif" font-size="9.8" lengthAdjust="spacing" textLength="160.1544" x="643.65" y="243.4195">SharedViewModel sharedViewModel</text><line style="stroke:#181818;stroke-width:0.3499999999999999;" x1="630.35" x2="807.3044" y1="248.6791" y2="248.6791"/><ellipse cx="637.35" cy="259.0465" fill="#84BE84" rx="2.1" ry="2.1" style="stroke:#038048;stroke-width:0.6999999999999998;"/><text fill="#000000" font-family="sans-serif" font-size="9.8" lengthAdjust="spacing" textLength="90.8414" x="643.65" y="262.0543">composable("home")</text><ellipse cx="637.35" cy="272.0812" fill="#84BE84" rx="2.1" ry="2.1" style="stroke:#038048;stroke-width:0.6999999999999998;"/><text fill="#000000" font-family="sans-serif" font-size="9.8" lengthAdjust="spacing" textLength="82.6779" x="643.65" y="275.0891">composable("add")</text></g><!--class AddScreen--><g id="elem_AddScreen"><rect codeLine="22" fill="#F1F1F1" height="137.8781" id="AddScreen" rx="1.75" ry="1.75" style="stroke:#181818;stroke-width:0.3499999999999999;" width="431.0633" x="429.8" y="365.4096"/><ellipse cx="618.1126" cy="376.6096" fill="#ADD1B2" rx="7.7" ry="7.7" style="stroke:#181818;stroke-width:0.6999999999999998;"/><path d="M620.0486,373.7221 Q620.158,373.5689 620.2892,373.4924 Q620.4205,373.4158 620.5736,373.4158 Q620.8361,373.4158 621.0001,373.6018 Q621.1642,373.7768 621.1642,374.2033 L621.1642,375.2205 Q621.1642,375.6471 621.0001,375.833 Q620.8361,376.0189 620.5736,376.0189 Q620.333,376.0189 620.1908,375.8768 Q620.0486,375.7455 619.972,375.3846 Q619.9392,375.133 619.808,375.0018 Q619.5783,374.7393 619.1517,374.5861 Q618.7251,374.433 618.2876,374.433 Q617.7517,374.433 617.3033,374.6627 Q616.8658,374.8924 616.5158,375.4174 Q616.1767,375.9424 616.1767,376.6643 L616.1767,377.4299 Q616.1767,378.2939 616.8001,378.8736 Q617.4236,379.4424 618.5392,379.4424 Q619.1955,379.4424 619.6548,379.2674 Q619.9283,379.158 620.2236,378.8518 Q620.4095,378.6658 620.508,378.6111 Q620.6173,378.5564 620.7595,378.5564 Q620.9892,378.5564 621.1642,378.7424 Q621.3501,378.9174 621.3501,379.158 Q621.3501,379.3986 621.1095,379.683 Q620.7595,380.0877 620.2017,380.3174 Q619.447,380.6346 618.5392,380.6346 Q617.4783,380.6346 616.6361,380.1971 Q615.947,379.8471 615.4658,379.1033 Q614.9845,378.3486 614.9845,377.4518 L614.9845,376.6424 Q614.9845,375.7127 615.4111,374.9143 Q615.8486,374.1049 616.6142,373.6783 Q617.3798,373.2408 618.2439,373.2408 Q618.758,373.2408 619.2064,373.3611 Q619.6658,373.4705 620.0486,373.7221 Z " fill="#000000"/><text fill="#000000" font-family="sans-serif" font-size="9.8" lengthAdjust="spacing" textLength="48.488" x="632.4626" y="380.6674">AddScreen</text><line style="stroke:#181818;stroke-width:0.3499999999999999;" x1="430.5" x2="860.1633" y1="387.8096" y2="387.8096"/><ellipse cx="437.5" cy="398.177" fill="none" rx="2.1" ry="2.1" style="stroke:#038048;stroke-width:0.6999999999999998;"/><text fill="#000000" font-family="sans-serif" font-size="9.8" lengthAdjust="spacing" textLength="141.0664" x="443.8" y="401.1848">NavHostController navController</text><ellipse cx="437.5" cy="411.2117" fill="none" rx="2.1" ry="2.1" style="stroke:#038048;stroke-width:0.6999999999999998;"/><text fill="#000000" font-family="sans-serif" font-size="9.8" lengthAdjust="spacing" textLength="160.1544" x="443.8" y="414.2195">SharedViewModel sharedViewModel</text><ellipse cx="437.5" cy="424.2465" fill="none" rx="2.1" ry="2.1" style="stroke:#038048;stroke-width:0.6999999999999998;"/><text fill="#000000" font-family="sans-serif" font-size="9.8" lengthAdjust="spacing" textLength="52.8377" x="443.8" y="427.2543">String name</text><ellipse cx="437.5" cy="437.2812" fill="none" rx="2.1" ry="2.1" style="stroke:#038048;stroke-width:0.6999999999999998;"/><text fill="#000000" font-family="sans-serif" font-size="9.8" lengthAdjust="spacing" textLength="99.6844" x="443.8" y="440.2891">LocalDate? arrivalDate</text><ellipse cx="437.5" cy="450.316" fill="none" rx="2.1" ry="2.1" style="stroke:#038048;stroke-width:0.6999999999999998;"/><text fill="#000000" font-family="sans-serif" font-size="9.8" lengthAdjust="spacing" textLength="114.9538" x="443.8" y="453.3238">LocalDate? departureDate</text><ellipse cx="437.5" cy="463.3508" fill="none" rx="2.1" ry="2.1" style="stroke:#038048;stroke-width:0.6999999999999998;"/><text fill="#000000" font-family="sans-serif" font-size="9.8" lengthAdjust="spacing" textLength="138.3724" x="443.8" y="466.3586">Boolean showDateRangePicker</text><line style="stroke:#181818;stroke-width:0.3499999999999999;" x1="430.5" x2="860.1633" y1="471.6182" y2="471.6182"/><ellipse cx="437.5" cy="481.9855" fill="#84BE84" rx="2.1" ry="2.1" style="stroke:#038048;stroke-width:0.6999999999999998;"/><text fill="#000000" font-family="sans-serif" font-size="9.8" lengthAdjust="spacing" textLength="186.8221" x="443.8" y="484.9934">calculateColor(Int id, Int totalEntries): Color</text><ellipse cx="437.5" cy="495.0203" fill="#84BE84" rx="2.1" ry="2.1" style="stroke:#038048;stroke-width:0.6999999999999998;"/><text fill="#000000" font-family="sans-serif" font-size="9.8" lengthAdjust="spacing" textLength="412.8633" x="443.8" y="498.0281">DateRangePickerDialog(onDateSelected: (LocalDate, LocalDate) -&gt; Unit, onDismiss: () -&gt; Unit)</text></g><!--class DateRangePickerDialog--><g id="elem_DateRangePickerDialog"><rect codeLine="32" fill="#F1F1F1" height="59.6695" id="DateRangePickerDialog" rx="1.75" ry="1.75" style="stroke:#181818;stroke-width:0.3499999999999999;" width="225.4738" x="532.7" y="551.9596"/><ellipse cx="590.1673" cy="563.1596" fill="#ADD1B2" rx="7.7" ry="7.7" style="stroke:#181818;stroke-width:0.6999999999999998;"/><path d="M592.1033,560.2721 Q592.2126,560.1189 592.3439,560.0424 Q592.4751,559.9658 592.6283,559.9658 Q592.8908,559.9658 593.0548,560.1518 Q593.2189,560.3268 593.2189,560.7533 L593.2189,561.7705 Q593.2189,562.1971 593.0548,562.383 Q592.8908,562.5689 592.6283,562.5689 Q592.3876,562.5689 592.2455,562.4268 Q592.1033,562.2955 592.0267,561.9346 Q591.9939,561.683 591.8626,561.5518 Q591.633,561.2893 591.2064,561.1361 Q590.7798,560.983 590.3423,560.983 Q589.8064,560.983 589.358,561.2127 Q588.9205,561.4424 588.5705,561.9674 Q588.2314,562.4924 588.2314,563.2143 L588.2314,563.9799 Q588.2314,564.8439 588.8548,565.4236 Q589.4783,565.9924 590.5939,565.9924 Q591.2501,565.9924 591.7095,565.8174 Q591.983,565.708 592.2783,565.4018 Q592.4642,565.2158 592.5626,565.1611 Q592.672,565.1064 592.8142,565.1064 Q593.0439,565.1064 593.2189,565.2924 Q593.4048,565.4674 593.4048,565.708 Q593.4048,565.9486 593.1642,566.233 Q592.8142,566.6377 592.2564,566.8674 Q591.5017,567.1846 590.5939,567.1846 Q589.533,567.1846 588.6908,566.7471 Q588.0017,566.3971 587.5205,565.6533 Q587.0392,564.8986 587.0392,564.0018 L587.0392,563.1924 Q587.0392,562.2627 587.4658,561.4643 Q587.9033,560.6549 588.6689,560.2283 Q589.4345,559.7908 590.2986,559.7908 Q590.8126,559.7908 591.2611,559.9111 Q591.7205,560.0205 592.1033,560.2721 Z " fill="#000000"/><text fill="#000000" font-family="sans-serif" font-size="9.8" lengthAdjust="spacing" textLength="104.5892" x="604.5173" y="567.2174">DateRangePickerDialog</text><line style="stroke:#181818;stroke-width:0.3499999999999999;" x1="533.4" x2="757.4738" y1="574.3596" y2="574.3596"/><line style="stroke:#181818;stroke-width:0.3499999999999999;" x1="533.4" x2="757.4738" y1="579.9596" y2="579.9596"/><ellipse cx="540.4" cy="590.327" fill="#84BE84" rx="2.1" ry="2.1" style="stroke:#038048;stroke-width:0.6999999999999998;"/><text fill="#000000" font-family="sans-serif" font-size="9.8" lengthAdjust="spacing" textLength="207.2738" x="546.7" y="593.3348">onDateSelected: (LocalDate, LocalDate) -&gt; Unit</text><ellipse cx="540.4" cy="603.3617" fill="#84BE84" rx="2.1" ry="2.1" style="stroke:#038048;stroke-width:0.6999999999999998;"/><text fill="#000000" font-family="sans-serif" font-size="9.8" lengthAdjust="spacing" textLength="89.0278" x="546.7" y="606.3695">onDismiss: () -&gt; Unit</text></g><!--class HomeScreen--><g id="elem_HomeScreen"><rect codeLine="38" fill="#F1F1F1" height="98.7738" id="HomeScreen" rx="1.75" ry="1.75" style="stroke:#181818;stroke-width:0.3499999999999999;" width="307.1517" x="82.95" y="385.0096"/><ellipse cx="204.9547" cy="396.2096" fill="#ADD1B2" rx="7.7" ry="7.7" style="stroke:#181818;stroke-width:0.6999999999999998;"/><path d="M206.8907,393.3221 Q207,393.1689 207.1313,393.0924 Q207.2625,393.0158 207.4157,393.0158 Q207.6782,393.0158 207.8422,393.2018 Q208.0063,393.3768 208.0063,393.8033 L208.0063,394.8205 Q208.0063,395.2471 207.8422,395.433 Q207.6782,395.6189 207.4157,395.6189 Q207.175,395.6189 207.0329,395.4768 Q206.8907,395.3455 206.8141,394.9846 Q206.7813,394.733 206.65,394.6018 Q206.4204,394.3393 205.9938,394.1861 Q205.5672,394.033 205.1297,394.033 Q204.5938,394.033 204.1454,394.2627 Q203.7079,394.4924 203.3579,395.0174 Q203.0188,395.5424 203.0188,396.2643 L203.0188,397.0299 Q203.0188,397.8939 203.6422,398.4736 Q204.2657,399.0424 205.3813,399.0424 Q206.0375,399.0424 206.4969,398.8674 Q206.7704,398.758 207.0657,398.4518 Q207.2516,398.2658 207.35,398.2111 Q207.4594,398.1564 207.6016,398.1564 Q207.8313,398.1564 208.0063,398.3424 Q208.1922,398.5174 208.1922,398.758 Q208.1922,398.9986 207.9516,399.283 Q207.6016,399.6877 207.0438,399.9174 Q206.2891,400.2346 205.3813,400.2346 Q204.3204,400.2346 203.4782,399.7971 Q202.7891,399.4471 202.3079,398.7033 Q201.8266,397.9486 201.8266,397.0518 L201.8266,396.2424 Q201.8266,395.3127 202.2532,394.5143 Q202.6907,393.7049 203.4563,393.2783 Q204.2219,392.8408 205.086,392.8408 Q205.6,392.8408 206.0485,392.9611 Q206.5079,393.0705 206.8907,393.3221 Z " fill="#000000"/><text fill="#000000" font-family="sans-serif" font-size="9.8" lengthAdjust="spacing" textLength="57.1922" x="219.3047" y="400.2674">HomeScreen</text><line style="stroke:#181818;stroke-width:0.3499999999999999;" x1="83.65" x2="389.4017" y1="407.4096" y2="407.4096"/><ellipse cx="90.65" cy="417.777" fill="none" rx="2.1" ry="2.1" style="stroke:#038048;stroke-width:0.6999999999999998;"/><text fill="#000000" font-family="sans-serif" font-size="9.8" lengthAdjust="spacing" textLength="141.0664" x="96.95" y="420.7848">NavHostController navController</text><ellipse cx="90.65" cy="430.8117" fill="none" rx="2.1" ry="2.1" style="stroke:#038048;stroke-width:0.6999999999999998;"/><text fill="#000000" font-family="sans-serif" font-size="9.8" lengthAdjust="spacing" textLength="160.1544" x="96.95" y="433.8195">SharedViewModel sharedViewModel</text><ellipse cx="90.65" cy="443.8465" fill="none" rx="2.1" ry="2.1" style="stroke:#038048;stroke-width:0.6999999999999998;"/><text fill="#000000" font-family="sans-serif" font-size="9.8" lengthAdjust="spacing" textLength="160.1592" x="96.95" y="446.8543">bookingsEntries: List&lt;BookingEntry&gt;</text><line style="stroke:#181818;stroke-width:0.3499999999999999;" x1="83.65" x2="389.4017" y1="452.1139" y2="452.1139"/><ellipse cx="90.65" cy="462.4812" fill="#84BE84" rx="2.1" ry="2.1" style="stroke:#038048;stroke-width:0.6999999999999998;"/><text fill="#000000" font-family="sans-serif" font-size="9.8" lengthAdjust="spacing" textLength="41.9371" x="96.95" y="465.4891">Scaffold()</text><ellipse cx="90.65" cy="475.516" fill="#84BE84" rx="2.1" ry="2.1" style="stroke:#038048;stroke-width:0.6999999999999998;"/><text fill="#000000" font-family="sans-serif" font-size="9.8" lengthAdjust="spacing" textLength="288.9517" x="96.95" y="478.5238">BookingEntryItem(BookingEntry booking, onDeleteClick: () -&gt; Unit)</text></g><!--class BookingEntryItem--><g id="elem_BookingEntryItem"><rect codeLine="45" fill="#F1F1F1" height="72.7043" id="BookingEntryItem" rx="1.75" ry="1.75" style="stroke:#181818;stroke-width:0.3499999999999999;" width="167.4203" x="187.95" y="545.3096"/><ellipse cx="230.0115" cy="556.5096" fill="#ADD1B2" rx="7.7" ry="7.7" style="stroke:#181818;stroke-width:0.6999999999999998;"/><path d="M231.9475,553.6221 Q232.0568,553.4689 232.1881,553.3924 Q232.3193,553.3158 232.4725,553.3158 Q232.735,553.3158 232.899,553.5018 Q233.0631,553.6768 233.0631,554.1033 L233.0631,555.1205 Q233.0631,555.5471 232.899,555.733 Q232.735,555.9189 232.4725,555.9189 Q232.2318,555.9189 232.0896,555.7768 Q231.9475,555.6455 231.8709,555.2846 Q231.8381,555.033 231.7068,554.9018 Q231.4771,554.6393 231.0506,554.4861 Q230.624,554.333 230.1865,554.333 Q229.6506,554.333 229.2021,554.5627 Q228.7646,554.7924 228.4146,555.3174 Q228.0756,555.8424 228.0756,556.5643 L228.0756,557.3299 Q228.0756,558.1939 228.699,558.7736 Q229.3225,559.3424 230.4381,559.3424 Q231.0943,559.3424 231.5537,559.1674 Q231.8271,559.058 232.1225,558.7518 Q232.3084,558.5658 232.4068,558.5111 Q232.5162,558.4564 232.6584,558.4564 Q232.8881,558.4564 233.0631,558.6424 Q233.249,558.8174 233.249,559.058 Q233.249,559.2986 233.0084,559.583 Q232.6584,559.9877 232.1006,560.2174 Q231.3459,560.5346 230.4381,560.5346 Q229.3771,560.5346 228.535,560.0971 Q227.8459,559.7471 227.3646,559.0033 Q226.8834,558.2486 226.8834,557.3518 L226.8834,556.5424 Q226.8834,555.6127 227.31,554.8143 Q227.7475,554.0049 228.5131,553.5783 Q229.2787,553.1408 230.1428,553.1408 Q230.6568,553.1408 231.1053,553.2611 Q231.5646,553.3705 231.9475,553.6221 Z " fill="#000000"/><text fill="#000000" font-family="sans-serif" font-size="9.8" lengthAdjust="spacing" textLength="77.3473" x="244.3615" y="560.5674">BookingEntryItem</text><line style="stroke:#181818;stroke-width:0.3499999999999999;" x1="188.65" x2="354.6703" y1="567.7096" y2="567.7096"/><ellipse cx="195.65" cy="578.077" fill="none" rx="2.1" ry="2.1" style="stroke:#038048;stroke-width:0.6999999999999998;"/><text fill="#000000" font-family="sans-serif" font-size="9.8" lengthAdjust="spacing" textLength="95.3395" x="201.95" y="581.0848">BookingEntry booking</text><ellipse cx="195.65" cy="591.1117" fill="none" rx="2.1" ry="2.1" style="stroke:#038048;stroke-width:0.6999999999999998;"/><text fill="#000000" font-family="sans-serif" font-size="9.8" lengthAdjust="spacing" textLength="149.2203" x="201.95" y="594.1195">DateTimeFormatter dateFormatter</text><line style="stroke:#181818;stroke-width:0.3499999999999999;" x1="188.65" x2="354.6703" y1="599.3791" y2="599.3791"/><ellipse cx="195.65" cy="609.7465" fill="#84BE84" rx="2.1" ry="2.1" style="stroke:#038048;stroke-width:0.6999999999999998;"/><text fill="#000000" font-family="sans-serif" font-size="9.8" lengthAdjust="spacing" textLength="104.2925" x="201.95" y="612.7543">onDeleteClick: () -&gt; Unit</text></g><!--class SharedViewModel--><g id="elem_SharedViewModel"><rect codeLine="53" fill="#F1F1F1" height="98.7738" id="SharedViewModel" rx="1.75" ry="1.75" style="stroke:#181818;stroke-width:0.3499999999999999;" width="270.9711" x="648.55" y="841.4096"/><ellipse cx="741.2935" cy="852.6096" fill="#ADD1B2" rx="7.7" ry="7.7" style="stroke:#181818;stroke-width:0.6999999999999998;"/><path d="M743.2294,849.7221 Q743.3388,849.5689 743.4701,849.4924 Q743.6013,849.4158 743.7544,849.4158 Q744.0169,849.4158 744.181,849.6018 Q744.3451,849.7768 744.3451,850.2033 L744.3451,851.2205 Q744.3451,851.6471 744.181,851.833 Q744.0169,852.0189 743.7544,852.0189 Q743.5138,852.0189 743.3716,851.8768 Q743.2294,851.7455 743.1529,851.3846 Q743.1201,851.133 742.9888,851.0018 Q742.7591,850.7393 742.3326,850.5861 Q741.906,850.433 741.4685,850.433 Q740.9326,850.433 740.4841,850.6627 Q740.0466,850.8924 739.6966,851.4174 Q739.3576,851.9424 739.3576,852.6643 L739.3576,853.4299 Q739.3576,854.2939 739.981,854.8736 Q740.6044,855.4424 741.7201,855.4424 Q742.3763,855.4424 742.8357,855.2674 Q743.1091,855.158 743.4044,854.8518 Q743.5904,854.6658 743.6888,854.6111 Q743.7982,854.5564 743.9404,854.5564 Q744.1701,854.5564 744.3451,854.7424 Q744.531,854.9174 744.531,855.158 Q744.531,855.3986 744.2904,855.683 Q743.9404,856.0877 743.3826,856.3174 Q742.6279,856.6346 741.7201,856.6346 Q740.6591,856.6346 739.8169,856.1971 Q739.1279,855.8471 738.6466,855.1033 Q738.1654,854.3486 738.1654,853.4518 L738.1654,852.6424 Q738.1654,851.7127 738.5919,850.9143 Q739.0294,850.1049 739.7951,849.6783 Q740.5607,849.2408 741.4248,849.2408 Q741.9388,849.2408 742.3873,849.3611 Q742.8466,849.4705 743.2294,849.7221 Z " fill="#000000"/><text fill="#000000" font-family="sans-serif" font-size="9.8" lengthAdjust="spacing" textLength="79.5341" x="755.6435" y="856.6674">SharedViewModel</text><line style="stroke:#181818;stroke-width:0.3499999999999999;" x1="649.25" x2="918.8211" y1="863.8096" y2="863.8096"/><ellipse cx="656.25" cy="874.177" fill="none" rx="2.1" ry="2.1" style="stroke:#038048;stroke-width:0.6999999999999998;"/><text fill="#000000" font-family="sans-serif" font-size="9.8" lengthAdjust="spacing" textLength="252.7711" x="662.55" y="877.1848">MutableStateFlow&lt;List&lt;BookingEntry&gt;&gt; _bookingsEntries</text><ellipse cx="656.25" cy="887.2117" fill="none" rx="2.1" ry="2.1" style="stroke:#038048;stroke-width:0.6999999999999998;"/><text fill="#000000" font-family="sans-serif" font-size="9.8" lengthAdjust="spacing" textLength="212.4562" x="662.55" y="890.2195">StateFlow&lt;List&lt;BookingEntry&gt;&gt; bookingsEntries</text><ellipse cx="656.25" cy="900.2465" fill="none" rx="2.1" ry="2.1" style="stroke:#038048;stroke-width:0.6999999999999998;"/><text fill="#000000" font-family="sans-serif" font-size="9.8" lengthAdjust="spacing" textLength="125.2945" x="662.55" y="903.2543">AtomicInteger nextBookingId</text><line style="stroke:#181818;stroke-width:0.3499999999999999;" x1="649.25" x2="918.8211" y1="908.5139" y2="908.5139"/><ellipse cx="656.25" cy="918.8812" fill="#84BE84" rx="2.1" ry="2.1" style="stroke:#038048;stroke-width:0.6999999999999998;"/><text fill="#000000" font-family="sans-serif" font-size="9.8" lengthAdjust="spacing" textLength="199.3783" x="662.55" y="921.8891">addBookingEntry(BookingEntry bookingEntry)</text><ellipse cx="656.25" cy="931.916" fill="#84BE84" rx="2.1" ry="2.1" style="stroke:#038048;stroke-width:0.6999999999999998;"/><text fill="#000000" font-family="sans-serif" font-size="9.8" lengthAdjust="spacing" textLength="209.7286" x="662.55" y="934.9238">deleteBookingEntry(BookingEntry bookingEntry)</text></g><!--class NavHostController--><g id="elem_NavHostController"><rect fill="#F1F1F1" height="33.6" id="NavHostController" rx="1.75" ry="1.75" style="stroke:#181818;stroke-width:0.3499999999999999;" width="102.4604" x="992.6" y="417.5596"/><ellipse cx="1003.1" cy="428.7596" fill="#ADD1B2" rx="7.7" ry="7.7" style="stroke:#181818;stroke-width:0.6999999999999998;"/><path d="M1005.0359,425.8721 Q1005.1453,425.7189 1005.2766,425.6424 Q1005.4078,425.5658 1005.5609,425.5658 Q1005.8234,425.5658 1005.9875,425.7518 Q1006.1516,425.9268 1006.1516,426.3533 L1006.1516,427.3705 Q1006.1516,427.7971 1005.9875,427.983 Q1005.8234,428.1689 1005.5609,428.1689 Q1005.3203,428.1689 1005.1781,428.0268 Q1005.0359,427.8955 1004.9594,427.5346 Q1004.9266,427.283 1004.7953,427.1518 Q1004.5656,426.8893 1004.1391,426.7361 Q1003.7125,426.583 1003.275,426.583 Q1002.7391,426.583 1002.2906,426.8127 Q1001.8531,427.0424 1001.5031,427.5674 Q1001.1641,428.0924 1001.1641,428.8143 L1001.1641,429.5799 Q1001.1641,430.4439 1001.7875,431.0236 Q1002.4109,431.5924 1003.5266,431.5924 Q1004.1828,431.5924 1004.6422,431.4174 Q1004.9156,431.308 1005.2109,431.0018 Q1005.3969,430.8158 1005.4953,430.7611 Q1005.6047,430.7064 1005.7469,430.7064 Q1005.9766,430.7064 1006.1516,430.8924 Q1006.3375,431.0674 1006.3375,431.308 Q1006.3375,431.5486 1006.0969,431.833 Q1005.7469,432.2377 1005.1891,432.4674 Q1004.4344,432.7846 1003.5266,432.7846 Q1002.4656,432.7846 1001.6234,432.3471 Q1000.9344,431.9971 1000.4531,431.2533 Q999.9719,430.4986 999.9719,429.6018 L999.9719,428.7924 Q999.9719,427.8627 1000.3984,427.0643 Q1000.8359,426.2549 1001.6016,425.8283 Q1002.3672,425.3908 1003.2312,425.3908 Q1003.7453,425.3908 1004.1937,425.5111 Q1004.6531,425.6205 1005.0359,425.8721 Z " fill="#000000"/><text fill="#000000" font-family="sans-serif" font-size="9.8" lengthAdjust="spacing" textLength="80.0604" x="1012.9" y="432.8174">NavHostController</text><line style="stroke:#181818;stroke-width:0.3499999999999999;" x1="993.3" x2="1094.3604" y1="439.9596" y2="439.9596"/><line style="stroke:#181818;stroke-width:0.3499999999999999;" x1="993.3" x2="1094.3604" y1="445.5596" y2="445.5596"/></g><!--link BookingEntry to SharedViewModel--><g id="link_BookingEntry_SharedViewModel"><path codeLine="67" d="M574.126,774.1186 C610.295,794.1036 652.4198,817.3704 691.9978,839.2384 " fill="none" id="BookingEntry-to-SharedViewModel" style="stroke:#181818;stroke-width:0.6999999999999998;"/><polygon fill="#181818" points="695.674,841.2696,691.5139,835.772,692.6105,839.5769,688.8056,840.6736,695.674,841.2696" style="stroke:#181818;stroke-width:0.6999999999999998;"/></g><!--link NavGraph to AddScreen--><g id="link_NavGraph_AddScreen"><path codeLine="68" d="M577.402,254.3546 C586.593,278.6026 602.8977,321.5895 617.9757,361.3495 " fill="none" id="NavGraph-to-AddScreen" style="stroke:#181818;stroke-width:0.6999999999999998;"/><polygon fill="#181818" points="619.465,365.2766,619.8492,358.3931,618.224,362.004,614.613,360.3788,619.465,365.2766" style="stroke:#181818;stroke-width:0.6999999999999998;"/></g><!--link NavGraph to HomeScreen--><g id="link_NavGraph_HomeScreen"><path codeLine="69" d="M537.439,249.7486 C505.82,261.3266 457.702,280.4296 418.6,302.4096 C375.893,326.4126 334.5627,355.9406 300.1647,382.3866 " fill="none" id="NavGraph-to-HomeScreen" style="stroke:#181818;stroke-width:0.6999999999999998;"/><polygon fill="#181818" points="296.835,384.9466,303.5361,383.3265,299.6097,382.8133,300.1229,378.8869,296.835,384.9466" style="stroke:#181818;stroke-width:0.6999999999999998;"/></g><!--link AddScreen to SharedViewModel--><g id="link_AddScreen_SharedViewModel"><path codeLine="70" d="M851.039,503.3236 C866.348,515.1746 879.893,529.0556 890.4,545.3096 C921.648,593.6446 915.236,752.3906 890.4,804.3096 C883.743,818.2186 876.6683,827.7191 865.2513,838.4431 " fill="none" id="AddScreen-to-SharedViewModel" style="stroke:#181818;stroke-width:0.6999999999999998;"/><polygon fill="#181818" points="862.19,841.3186,868.6989,839.0462,864.7411,838.9223,864.865,834.9645,862.19,841.3186" style="stroke:#181818;stroke-width:0.6999999999999998;"/></g><!--link HomeScreen to SharedViewModel--><g id="link_HomeScreen_SharedViewModel"><path codeLine="71" d="M352.429,483.7236 C374.108,491.3256 396.809,498.3116 418.6,503.3096 C517.265,525.9476 803.999,470.5006 872.2,545.3096 C911.638,588.5696 846.0704,752.8522 808.4524,837.2792 " fill="none" id="HomeScreen-to-SharedViewModel" style="stroke:#181818;stroke-width:0.6999999999999998;"/><polygon fill="#181818" points="806.743,841.1156,811.8647,836.5005,808.1675,837.9186,806.7495,834.2214,806.743,841.1156" style="stroke:#181818;stroke-width:0.6999999999999998;"/></g><!--link MainActivity to NavGraph--><g id="link_MainActivity_NavGraph"><path codeLine="72" d="M571.2,152.6726 C571.2,174.1346 571.2,198.3406 571.2,215.9946 " fill="none" id="MainActivity-to-NavGraph" style="stroke:#181818;stroke-width:0.6999999999999998;"/><polygon fill="#181818" points="571.2,220.1946,574,213.8946,571.2,216.6946,568.4,213.8946,571.2,220.1946" style="stroke:#181818;stroke-width:0.6999999999999998;"/></g><!--link AppNavHost to NavHostController--><g id="link_AppNavHost_NavHostController"><path codeLine="73" d="M808.185,250.4206 C851.438,259.6186 902.482,275.4316 942.2,302.4096 C987.119,332.9156 1018.9512,385.945 1033.6582,413.749 " fill="none" id="AppNavHost-to-NavHostController" style="stroke:#181818;stroke-width:0.6999999999999998;"/><polygon fill="#181818" points="1035.622,417.4616,1035.1514,410.5835,1033.9855,414.3677,1030.2012,413.2018,1035.622,417.4616" style="stroke:#181818;stroke-width:0.6999999999999998;"/></g><!--link AppNavHost to SharedViewModel--><g id="link_AppNavHost_SharedViewModel"><path codeLine="74" d="M808.276,258.0086 C832.419,267.6056 856.254,281.7176 872.2,302.4096 C938.763,388.7616 898.52,436.5786 906.5,545.3096 C908.432,571.5876 907.97,802.8326 907.2,804.3096 C899.78,818.5126 892.0092,828.1241 879.6332,838.6591 " fill="none" id="AppNavHost-to-SharedViewModel" style="stroke:#181818;stroke-width:0.6999999999999998;"/><polygon fill="#181818" points="876.435,841.3816,883.0472,839.43,879.1002,839.1129,879.4173,835.1658,876.435,841.3816" style="stroke:#181818;stroke-width:0.6999999999999998;"/></g><!--link AppNavHost to HomeScreen--><g id="link_AppNavHost_HomeScreen"><path codeLine="75" d="M657.188,280.1566 C644.525,286.9326 630.917,292.9736 617.4,296.8096 C574.882,308.8776 460.46,288.2346 418.6,302.4096 C368.697,319.3076 323.8792,352.2202 289.7262,382.1172 " fill="none" id="AppNavHost-to-HomeScreen" style="stroke:#181818;stroke-width:0.6999999999999998;"/><polygon fill="#181818" points="286.566,384.8836,293.1506,382.8408,289.1995,382.5782,289.4621,378.6271,286.566,384.8836" style="stroke:#181818;stroke-width:0.6999999999999998;"/></g><!--link AppNavHost to AddScreen--><g id="link_AppNavHost_AddScreen"><path codeLine="76" d="M703.045,280.2196 C693.714,305.0486 683.1793,333.0999 672.5323,361.4359 " fill="none" id="AppNavHost-to-AddScreen" style="stroke:#181818;stroke-width:0.6999999999999998;"/><polygon fill="#181818" points="671.055,365.3676,675.892,360.455,672.2861,362.0912,670.6498,358.4853,671.055,365.3676" style="stroke:#181818;stroke-width:0.6999999999999998;"/></g><!--link AddScreen to DateRangePickerDialog--><g id="link_AddScreen_DateRangePickerDialog"><path codeLine="77" d="M645.4,503.3306 C645.4,520.3966 645.4,533.6056 645.4,547.6056 " fill="none" id="AddScreen-to-DateRangePickerDialog" style="stroke:#181818;stroke-width:0.6999999999999998;"/><polygon fill="#181818" points="645.4,551.8056,648.2,545.5056,645.4,548.3056,642.6,545.5056,645.4,551.8056" style="stroke:#181818;stroke-width:0.6999999999999998;"/></g><!--link HomeScreen to BookingEntryItem--><g id="link_HomeScreen_BookingEntryItem"><path codeLine="78" d="M248.304,483.8636 C253.113,503.9186 257.6,522.6335 262.031,541.0995 " fill="none" id="HomeScreen-to-BookingEntryItem" style="stroke:#181818;stroke-width:0.6999999999999998;"/><polygon fill="#181818" points="263.011,545.1836,264.2637,538.4041,262.1943,541.7802,258.8183,539.7108,263.011,545.1836" style="stroke:#181818;stroke-width:0.6999999999999998;"/></g><!--link BookingEntryItem to BookingEntry--><g id="link_BookingEntryItem_BookingEntry"><path codeLine="79" d="M326.662,618.1726 C362.39,641.3846 405.5509,669.4206 442.9099,693.6896 " fill="none" id="BookingEntryItem-to-BookingEntry" style="stroke:#181818;stroke-width:0.6999999999999998;"/><polygon fill="#181818" points="446.432,695.9776,442.6742,690.1975,443.4969,694.0709,439.6235,694.8936,446.432,695.9776" style="stroke:#181818;stroke-width:0.6999999999999998;"/></g><!--SRC=[nLLDZzem4BtdLrXx2YgxbzxGYXNBjbsafQfAssirn4EmSEp8SM2hYl_USH92uXWaJiq1uVdm-Fazp-IGx215bkZi0TyXooK-GBb9OOqVsT-8qPSt8PdcA1kR-n89HS6UjTu9bNvIrlpfEDttWIsKPO9xnfKrbC0KPEXvtdG2yWKiCZ16xEl_5sCuvc1iQJ0GDTTI6m95lwtd69r_JvWKx4KALcWr0FOLzbyCv5lFFCjpyhpgmWxGDlQvfhlGKg9nsvzN_ZLimI3_9V2mh2wswA-zQE8drmMi9SPtMvtXtUXA073UyOTmbw9p-fEHqZnC3MJELub1L9xtTjIt8xyk6KyIJnTrCmYyB9uwb6Gj4HITJHzSo7TGANuJoIw8YBPDIabXbUxYMlRZIlvMMv3kTGWiHfDQc84Tl1el0gHEOwsSVOKI4ujymk8MmVWCPiJkf-od4dRCA5uKcIWA2ctDVQKS0mG7YmV9lkr0uGs69xnmmED0eKxvGOc-akC_QtHTDyAYuNh2taHX7xljSHggay1ceoMFHs4HjiaBYrdSQxPDmOfr8eJ49uc-svZtAmHlBrGrJ6tu61Va_aDa-5cR3AmbGZXPsjLLGVGxsPue2KycdqA_NIzBwzhbohhAKXyUXuHDsM-Fri4ikvPyFNTcTIOIwX6OEa7YkstI5_x4fCRStJaeWshX3mLU4N9hRlUQwwjSWb2pn8gziDqXxpYV6wGhY9zBnIK-ZJg-0gi7XyesuZv6noZgrRydXNWqHQUvMpdRqTCtdvzxT1vEeSqwVI7axk5o0UtGxupvnjvl87w0lxFdxXwuxpaZx2C9zcGVZ_zyey5xzgF-0G00]--></g></svg>